<svg id="Layer_3" enable-background="new 0 0 64 64" height="512" viewBox="0 0 64 64" width="512" xmlns="http://www.w3.org/2000/svg"><g><path d="m30.316 3.051-1.256-.419c-6.499-2.166-13.621-2.166-20.12 0l-1.256.419c-.409.137-.684.519-.684.949v9.858c0 2.938 1.144 5.7 3.222 7.778l4.875 4.875.903 3.613v15.103c-.591.303-1.014.885-1.079 1.592l-.9 9.907c-.014.152-.021.304-.021.456v.818c0 2.757 2.243 5 5 5s5-2.243 5-5v-.818c0-.152-.007-.303-.021-.454l-.9-9.909c-.065-.707-.488-1.289-1.079-1.592v-15.103l.903-3.613 4.875-4.875c2.078-2.078 3.222-4.84 3.222-7.778v-9.858c0-.43-.275-.812-.684-.949zm-12.316 41.949v-14h2v14zm-.219-16-.5-2h3.438l-.5 2zm4.219 29c0 1.654-1.346 3-3 3s-3-1.346-3-3v-.818c0-.09.004-.18.013-.272l.9-9.91h4.173l.901 9.91v.002c.008.09.012.179.012.27v.818zm7-44.142c0 2.404-.936 4.664-2.636 6.364l-4.778 4.778h-5.172l-4.778-4.778c-1.7-1.7-2.636-3.96-2.636-6.364v-9.137l.573-.191c6.09-2.03 12.765-2.03 18.854 0l.573.191z"/><path d="m18 6h2v16h-2z"/><path d="m23 6h2v14h-2z"/><path d="m13 6h2v14h-2z"/><path d="m57 15c0-7.72-4.935-14-11-14s-11 6.28-11 14c0 6.395 3.39 11.79 8 13.457v6.543c-1.103 0-2 .897-2 2v2.938c0 1.45.178 2.897.53 4.304.312 1.248.47 2.533.47 3.82v10.938c0 2.206 1.794 4 4 4s4-1.794 4-4v-10.938c0-1.286.158-2.571.47-3.819.352-1.407.53-2.854.53-4.304v-2.939c0-1.103-.897-2-2-2v-6.543c4.61-1.667 8-7.062 8-13.457zm-13 11.691v-1.691c0-1.103.897-2 2-2s2 .897 2 2v1.691c-.644.196-1.312.309-2 .309s-1.356-.113-2-.309zm-7-11.691c0-6.617 4.038-12 9-12s9 5.383 9 12c0 4.7-2.042 8.765-5 10.734v-.734c0-2.206-1.794-4-4-4s-4 1.794-4 4v.734c-2.958-1.969-5-6.034-5-10.734zm12 24.938c0 1.286-.158 2.571-.47 3.819-.352 1.407-.53 2.855-.53 4.305v10.938c0 1.103-.897 2-2 2s-2-.897-2-2v-10.938c0-1.45-.178-2.897-.53-4.304-.312-1.248-.47-2.533-.47-3.82v-2.938h6zm-2-4.938h-2v-6.064c.33.038.662.064 1 .064s.67-.026 1-.064z"/><path d="m52 15h2c0-6.065-3.589-11-8-11v2c3.309 0 6 4.038 6 9z"/></g></svg>